<mxfile host="app.diagrams.net" modified="2024-01-29T02:58:03.770Z" agent="Mozilla/5.0 (Windows NT 10.0; Win64; x64) AppleWebKit/537.36 (KHTML, like Gecko) Chrome/120.0.0.0 Safari/537.36 Edg/120.0.0.0" etag="qEopUZAkfOyqwDIdrkYc" version="23.0.2" type="github">
  <diagram name="페이지-1" id="MAXi2UrqhzSvvPwt2Qxl">
    <mxGraphModel dx="2586" dy="1243" grid="0" gridSize="10" guides="1" tooltips="1" connect="1" arrows="1" fold="1" page="0" pageScale="1" pageWidth="827" pageHeight="1169" math="0" shadow="0">
      <root>
        <mxCell id="0" />
        <mxCell id="1" parent="0" />
        <mxCell id="D1hfKeOPMcl4Jce2dl7W-1" value="회원" style="whiteSpace=wrap;html=1;align=center;fontSize=16;" vertex="1" parent="1">
          <mxGeometry x="-755" y="-18" width="100" height="40" as="geometry" />
        </mxCell>
        <mxCell id="D1hfKeOPMcl4Jce2dl7W-3" value="상품" style="whiteSpace=wrap;html=1;align=center;fontSize=16;" vertex="1" parent="1">
          <mxGeometry x="-339" y="-17" width="82" height="40" as="geometry" />
        </mxCell>
        <mxCell id="D1hfKeOPMcl4Jce2dl7W-4" value="아이디" style="ellipse;whiteSpace=wrap;html=1;align=center;fontStyle=4;fontSize=16;" vertex="1" parent="1">
          <mxGeometry x="-934" y="-133" width="100" height="40" as="geometry" />
        </mxCell>
        <mxCell id="D1hfKeOPMcl4Jce2dl7W-5" value="비밀번호" style="ellipse;whiteSpace=wrap;html=1;align=center;fontSize=16;" vertex="1" parent="1">
          <mxGeometry x="-934" y="-86" width="100" height="40" as="geometry" />
        </mxCell>
        <mxCell id="D1hfKeOPMcl4Jce2dl7W-6" value="이름" style="ellipse;whiteSpace=wrap;html=1;align=center;fontSize=16;" vertex="1" parent="1">
          <mxGeometry x="-934" y="-41" width="100" height="40" as="geometry" />
        </mxCell>
        <mxCell id="D1hfKeOPMcl4Jce2dl7W-7" value="나이" style="ellipse;whiteSpace=wrap;html=1;align=center;fontSize=16;" vertex="1" parent="1">
          <mxGeometry x="-934" y="6" width="100" height="40" as="geometry" />
        </mxCell>
        <mxCell id="D1hfKeOPMcl4Jce2dl7W-8" value="직업" style="ellipse;whiteSpace=wrap;html=1;align=center;fontSize=16;" vertex="1" parent="1">
          <mxGeometry x="-934" y="58" width="100" height="40" as="geometry" />
        </mxCell>
        <mxCell id="D1hfKeOPMcl4Jce2dl7W-9" value="등급" style="ellipse;whiteSpace=wrap;html=1;align=center;fontSize=16;" vertex="1" parent="1">
          <mxGeometry x="-934" y="113" width="100" height="40" as="geometry" />
        </mxCell>
        <mxCell id="D1hfKeOPMcl4Jce2dl7W-10" value="적립금" style="ellipse;whiteSpace=wrap;html=1;align=center;fontSize=16;" vertex="1" parent="1">
          <mxGeometry x="-934" y="163" width="100" height="40" as="geometry" />
        </mxCell>
        <mxCell id="D1hfKeOPMcl4Jce2dl7W-12" value="상품번호" style="ellipse;whiteSpace=wrap;html=1;align=center;fontStyle=4;fontSize=16;" vertex="1" parent="1">
          <mxGeometry x="-175" y="-111" width="100" height="40" as="geometry" />
        </mxCell>
        <mxCell id="D1hfKeOPMcl4Jce2dl7W-13" value="상품명" style="ellipse;whiteSpace=wrap;html=1;align=center;fontSize=16;" vertex="1" parent="1">
          <mxGeometry x="-176" y="-71" width="100" height="40" as="geometry" />
        </mxCell>
        <mxCell id="D1hfKeOPMcl4Jce2dl7W-14" value="재고량" style="ellipse;whiteSpace=wrap;html=1;align=center;fontSize=16;" vertex="1" parent="1">
          <mxGeometry x="-176" y="-31" width="100" height="40" as="geometry" />
        </mxCell>
        <mxCell id="D1hfKeOPMcl4Jce2dl7W-15" value="단가" style="ellipse;whiteSpace=wrap;html=1;align=center;fontSize=16;" vertex="1" parent="1">
          <mxGeometry x="-174" y="12" width="100" height="40" as="geometry" />
        </mxCell>
        <mxCell id="D1hfKeOPMcl4Jce2dl7W-30" value="" style="endArrow=none;html=1;rounded=0;fontSize=12;startSize=8;endSize=8;curved=1;entryX=0;entryY=0.5;entryDx=0;entryDy=0;exitX=1;exitY=0.5;exitDx=0;exitDy=0;" edge="1" parent="1" source="D1hfKeOPMcl4Jce2dl7W-4" target="D1hfKeOPMcl4Jce2dl7W-1">
          <mxGeometry relative="1" as="geometry">
            <mxPoint x="-866" y="-111.5" as="sourcePoint" />
            <mxPoint x="-706" y="-111.5" as="targetPoint" />
          </mxGeometry>
        </mxCell>
        <mxCell id="D1hfKeOPMcl4Jce2dl7W-31" value="" style="endArrow=none;html=1;rounded=0;fontSize=12;startSize=8;endSize=8;curved=1;entryX=0;entryY=0.5;entryDx=0;entryDy=0;exitX=1;exitY=0.5;exitDx=0;exitDy=0;" edge="1" parent="1" source="D1hfKeOPMcl4Jce2dl7W-5" target="D1hfKeOPMcl4Jce2dl7W-1">
          <mxGeometry relative="1" as="geometry">
            <mxPoint x="-867" y="-62" as="sourcePoint" />
            <mxPoint x="-756" y="1" as="targetPoint" />
          </mxGeometry>
        </mxCell>
        <mxCell id="D1hfKeOPMcl4Jce2dl7W-33" value="" style="endArrow=none;html=1;rounded=0;fontSize=12;startSize=8;endSize=8;curved=1;exitX=1;exitY=0.5;exitDx=0;exitDy=0;entryX=0;entryY=0.5;entryDx=0;entryDy=0;" edge="1" parent="1" source="D1hfKeOPMcl4Jce2dl7W-10" target="D1hfKeOPMcl4Jce2dl7W-1">
          <mxGeometry relative="1" as="geometry">
            <mxPoint x="-723" y="130" as="sourcePoint" />
            <mxPoint x="-615" y="196.5" as="targetPoint" />
          </mxGeometry>
        </mxCell>
        <mxCell id="D1hfKeOPMcl4Jce2dl7W-34" value="" style="endArrow=none;html=1;rounded=0;fontSize=12;startSize=8;endSize=8;curved=1;entryX=0;entryY=0.5;entryDx=0;entryDy=0;exitX=1;exitY=0.5;exitDx=0;exitDy=0;" edge="1" parent="1" source="D1hfKeOPMcl4Jce2dl7W-6" target="D1hfKeOPMcl4Jce2dl7W-1">
          <mxGeometry relative="1" as="geometry">
            <mxPoint x="-864" y="-23" as="sourcePoint" />
            <mxPoint x="-761" y="3" as="targetPoint" />
          </mxGeometry>
        </mxCell>
        <mxCell id="D1hfKeOPMcl4Jce2dl7W-35" value="" style="endArrow=none;html=1;rounded=0;fontSize=12;startSize=8;endSize=8;curved=1;entryX=0;entryY=0.5;entryDx=0;entryDy=0;exitX=1;exitY=0.5;exitDx=0;exitDy=0;" edge="1" parent="1" source="D1hfKeOPMcl4Jce2dl7W-9" target="D1hfKeOPMcl4Jce2dl7W-1">
          <mxGeometry relative="1" as="geometry">
            <mxPoint x="-864" y="134" as="sourcePoint" />
            <mxPoint x="-756" y="200.5" as="targetPoint" />
          </mxGeometry>
        </mxCell>
        <mxCell id="D1hfKeOPMcl4Jce2dl7W-36" value="" style="endArrow=none;html=1;rounded=0;fontSize=12;startSize=8;endSize=8;curved=1;entryX=0;entryY=0.5;entryDx=0;entryDy=0;exitX=0.97;exitY=0.3;exitDx=0;exitDy=0;exitPerimeter=0;" edge="1" parent="1" source="D1hfKeOPMcl4Jce2dl7W-8" target="D1hfKeOPMcl4Jce2dl7W-1">
          <mxGeometry relative="1" as="geometry">
            <mxPoint x="-864" y="79" as="sourcePoint" />
            <mxPoint x="-756" y="145.5" as="targetPoint" />
          </mxGeometry>
        </mxCell>
        <mxCell id="D1hfKeOPMcl4Jce2dl7W-37" value="" style="endArrow=none;html=1;rounded=0;fontSize=12;startSize=8;endSize=8;curved=1;entryX=0;entryY=0.5;entryDx=0;entryDy=0;exitX=0.93;exitY=0.25;exitDx=0;exitDy=0;exitPerimeter=0;" edge="1" parent="1" source="D1hfKeOPMcl4Jce2dl7W-7" target="D1hfKeOPMcl4Jce2dl7W-1">
          <mxGeometry relative="1" as="geometry">
            <mxPoint x="-866" y="23.5" as="sourcePoint" />
            <mxPoint x="-758" y="90" as="targetPoint" />
          </mxGeometry>
        </mxCell>
        <mxCell id="D1hfKeOPMcl4Jce2dl7W-40" value="" style="endArrow=none;html=1;rounded=0;fontSize=12;startSize=8;endSize=8;curved=1;entryX=0;entryY=0.5;entryDx=0;entryDy=0;exitX=1;exitY=0.5;exitDx=0;exitDy=0;" edge="1" parent="1" source="D1hfKeOPMcl4Jce2dl7W-3" target="D1hfKeOPMcl4Jce2dl7W-12">
          <mxGeometry relative="1" as="geometry">
            <mxPoint x="-331" y="-76" as="sourcePoint" />
            <mxPoint x="-171" y="-76" as="targetPoint" />
          </mxGeometry>
        </mxCell>
        <mxCell id="D1hfKeOPMcl4Jce2dl7W-41" value="" style="endArrow=none;html=1;rounded=0;fontSize=12;startSize=8;endSize=8;curved=1;entryX=0;entryY=0.5;entryDx=0;entryDy=0;exitX=1;exitY=0.5;exitDx=0;exitDy=0;" edge="1" parent="1" source="D1hfKeOPMcl4Jce2dl7W-3" target="D1hfKeOPMcl4Jce2dl7W-13">
          <mxGeometry relative="1" as="geometry">
            <mxPoint x="-314" y="53" as="sourcePoint" />
            <mxPoint x="-154" y="53" as="targetPoint" />
          </mxGeometry>
        </mxCell>
        <mxCell id="D1hfKeOPMcl4Jce2dl7W-42" value="" style="endArrow=none;html=1;rounded=0;fontSize=12;startSize=8;endSize=8;curved=1;exitX=1;exitY=0.5;exitDx=0;exitDy=0;entryX=0;entryY=0.5;entryDx=0;entryDy=0;" edge="1" parent="1" source="D1hfKeOPMcl4Jce2dl7W-3" target="D1hfKeOPMcl4Jce2dl7W-14">
          <mxGeometry relative="1" as="geometry">
            <mxPoint x="-170" y="243" as="sourcePoint" />
            <mxPoint x="-10" y="243" as="targetPoint" />
          </mxGeometry>
        </mxCell>
        <mxCell id="D1hfKeOPMcl4Jce2dl7W-43" value="" style="endArrow=none;html=1;rounded=0;fontSize=12;startSize=8;endSize=8;curved=1;exitX=1;exitY=0.5;exitDx=0;exitDy=0;entryX=0;entryY=0.5;entryDx=0;entryDy=0;" edge="1" parent="1" source="D1hfKeOPMcl4Jce2dl7W-3" target="D1hfKeOPMcl4Jce2dl7W-15">
          <mxGeometry relative="1" as="geometry">
            <mxPoint x="-160" y="253" as="sourcePoint" />
            <mxPoint y="253" as="targetPoint" />
          </mxGeometry>
        </mxCell>
        <mxCell id="D1hfKeOPMcl4Jce2dl7W-44" value="게시글" style="whiteSpace=wrap;html=1;align=center;fontSize=16;" vertex="1" parent="1">
          <mxGeometry x="-755" y="343" width="100" height="40" as="geometry" />
        </mxCell>
        <mxCell id="D1hfKeOPMcl4Jce2dl7W-45" value="제조업체" style="whiteSpace=wrap;html=1;align=center;fontSize=16;" vertex="1" parent="1">
          <mxGeometry x="-348" y="343" width="100" height="40" as="geometry" />
        </mxCell>
        <mxCell id="D1hfKeOPMcl4Jce2dl7W-46" value="글번호" style="ellipse;whiteSpace=wrap;html=1;align=center;fontStyle=4;fontSize=16;" vertex="1" parent="1">
          <mxGeometry x="-934" y="282" width="100" height="40" as="geometry" />
        </mxCell>
        <mxCell id="D1hfKeOPMcl4Jce2dl7W-48" value="글제목" style="ellipse;whiteSpace=wrap;html=1;align=center;fontSize=16;" vertex="1" parent="1">
          <mxGeometry x="-934" y="329" width="100" height="40" as="geometry" />
        </mxCell>
        <mxCell id="D1hfKeOPMcl4Jce2dl7W-49" value="글내용" style="ellipse;whiteSpace=wrap;html=1;align=center;fontSize=16;" vertex="1" parent="1">
          <mxGeometry x="-934" y="372" width="100" height="40" as="geometry" />
        </mxCell>
        <mxCell id="D1hfKeOPMcl4Jce2dl7W-50" value="작성일자" style="ellipse;whiteSpace=wrap;html=1;align=center;fontSize=16;" vertex="1" parent="1">
          <mxGeometry x="-936" y="415" width="100" height="40" as="geometry" />
        </mxCell>
        <mxCell id="D1hfKeOPMcl4Jce2dl7W-51" value="" style="endArrow=none;html=1;rounded=0;fontSize=12;startSize=8;endSize=8;curved=1;exitX=1;exitY=0.5;exitDx=0;exitDy=0;entryX=0;entryY=0.5;entryDx=0;entryDy=0;" edge="1" parent="1" source="D1hfKeOPMcl4Jce2dl7W-46" target="D1hfKeOPMcl4Jce2dl7W-44">
          <mxGeometry relative="1" as="geometry">
            <mxPoint x="-790" y="176" as="sourcePoint" />
            <mxPoint x="-630" y="176" as="targetPoint" />
          </mxGeometry>
        </mxCell>
        <mxCell id="D1hfKeOPMcl4Jce2dl7W-52" value="" style="endArrow=none;html=1;rounded=0;fontSize=12;startSize=8;endSize=8;curved=1;exitX=1;exitY=0.5;exitDx=0;exitDy=0;entryX=0;entryY=0.5;entryDx=0;entryDy=0;" edge="1" parent="1" source="D1hfKeOPMcl4Jce2dl7W-48" target="D1hfKeOPMcl4Jce2dl7W-44">
          <mxGeometry relative="1" as="geometry">
            <mxPoint x="-780" y="186" as="sourcePoint" />
            <mxPoint x="-620" y="186" as="targetPoint" />
          </mxGeometry>
        </mxCell>
        <mxCell id="D1hfKeOPMcl4Jce2dl7W-53" value="" style="endArrow=none;html=1;rounded=0;fontSize=12;startSize=8;endSize=8;curved=1;exitX=1;exitY=0.5;exitDx=0;exitDy=0;entryX=0;entryY=0.5;entryDx=0;entryDy=0;" edge="1" parent="1" source="D1hfKeOPMcl4Jce2dl7W-49" target="D1hfKeOPMcl4Jce2dl7W-44">
          <mxGeometry relative="1" as="geometry">
            <mxPoint x="-770" y="196" as="sourcePoint" />
            <mxPoint x="-610" y="196" as="targetPoint" />
          </mxGeometry>
        </mxCell>
        <mxCell id="D1hfKeOPMcl4Jce2dl7W-54" value="" style="endArrow=none;html=1;rounded=0;fontSize=12;startSize=8;endSize=8;curved=1;exitX=1;exitY=0.5;exitDx=0;exitDy=0;entryX=0;entryY=0.5;entryDx=0;entryDy=0;" edge="1" parent="1" source="D1hfKeOPMcl4Jce2dl7W-50" target="D1hfKeOPMcl4Jce2dl7W-44">
          <mxGeometry relative="1" as="geometry">
            <mxPoint x="-760" y="206" as="sourcePoint" />
            <mxPoint x="-600" y="206" as="targetPoint" />
          </mxGeometry>
        </mxCell>
        <mxCell id="D1hfKeOPMcl4Jce2dl7W-57" value="업체코드" style="ellipse;whiteSpace=wrap;html=1;align=center;fontStyle=4;fontSize=16;" vertex="1" parent="1">
          <mxGeometry x="-147" y="251" width="100" height="40" as="geometry" />
        </mxCell>
        <mxCell id="D1hfKeOPMcl4Jce2dl7W-58" value="전화번호" style="ellipse;whiteSpace=wrap;html=1;align=center;fontSize=16;" vertex="1" parent="1">
          <mxGeometry x="-147" y="338" width="100" height="40" as="geometry" />
        </mxCell>
        <mxCell id="D1hfKeOPMcl4Jce2dl7W-59" value="제조업체명" style="ellipse;whiteSpace=wrap;html=1;align=center;fontSize=16;" vertex="1" parent="1">
          <mxGeometry x="-147" y="295" width="100" height="40" as="geometry" />
        </mxCell>
        <mxCell id="D1hfKeOPMcl4Jce2dl7W-60" value="위치" style="ellipse;whiteSpace=wrap;html=1;align=center;fontSize=16;" vertex="1" parent="1">
          <mxGeometry x="-147" y="380" width="100" height="40" as="geometry" />
        </mxCell>
        <mxCell id="D1hfKeOPMcl4Jce2dl7W-61" value="담당자" style="ellipse;whiteSpace=wrap;html=1;align=center;fontSize=16;" vertex="1" parent="1">
          <mxGeometry x="-147" y="423" width="100" height="40" as="geometry" />
        </mxCell>
        <mxCell id="D1hfKeOPMcl4Jce2dl7W-62" value="" style="endArrow=none;html=1;rounded=0;fontSize=12;startSize=8;endSize=8;curved=1;exitX=1;exitY=0.5;exitDx=0;exitDy=0;entryX=0;entryY=0.5;entryDx=0;entryDy=0;" edge="1" parent="1" source="D1hfKeOPMcl4Jce2dl7W-45" target="D1hfKeOPMcl4Jce2dl7W-57">
          <mxGeometry relative="1" as="geometry">
            <mxPoint x="-279" y="245" as="sourcePoint" />
            <mxPoint x="-338" y="230" as="targetPoint" />
          </mxGeometry>
        </mxCell>
        <mxCell id="D1hfKeOPMcl4Jce2dl7W-63" value="" style="endArrow=none;html=1;rounded=0;fontSize=12;startSize=8;endSize=8;curved=1;exitX=1;exitY=0.5;exitDx=0;exitDy=0;entryX=0;entryY=0.5;entryDx=0;entryDy=0;" edge="1" parent="1" source="D1hfKeOPMcl4Jce2dl7W-45" target="D1hfKeOPMcl4Jce2dl7W-59">
          <mxGeometry relative="1" as="geometry">
            <mxPoint x="-322" y="477" as="sourcePoint" />
            <mxPoint x="-162" y="477" as="targetPoint" />
          </mxGeometry>
        </mxCell>
        <mxCell id="D1hfKeOPMcl4Jce2dl7W-64" value="" style="endArrow=none;html=1;rounded=0;fontSize=12;startSize=8;endSize=8;curved=1;exitX=1;exitY=0.5;exitDx=0;exitDy=0;entryX=0;entryY=0.5;entryDx=0;entryDy=0;" edge="1" parent="1" source="D1hfKeOPMcl4Jce2dl7W-45" target="D1hfKeOPMcl4Jce2dl7W-58">
          <mxGeometry relative="1" as="geometry">
            <mxPoint x="-200" y="452" as="sourcePoint" />
            <mxPoint x="-166" y="503" as="targetPoint" />
          </mxGeometry>
        </mxCell>
        <mxCell id="D1hfKeOPMcl4Jce2dl7W-65" value="" style="endArrow=none;html=1;rounded=0;fontSize=12;startSize=8;endSize=8;curved=1;exitX=1;exitY=0.5;exitDx=0;exitDy=0;entryX=0;entryY=0.5;entryDx=0;entryDy=0;" edge="1" parent="1" source="D1hfKeOPMcl4Jce2dl7W-45" target="D1hfKeOPMcl4Jce2dl7W-60">
          <mxGeometry relative="1" as="geometry">
            <mxPoint x="-324" y="534" as="sourcePoint" />
            <mxPoint x="-164" y="534" as="targetPoint" />
          </mxGeometry>
        </mxCell>
        <mxCell id="D1hfKeOPMcl4Jce2dl7W-66" value="" style="endArrow=none;html=1;rounded=0;fontSize=12;startSize=8;endSize=8;curved=1;exitX=1;exitY=0.75;exitDx=0;exitDy=0;entryX=0;entryY=0.5;entryDx=0;entryDy=0;entryPerimeter=0;" edge="1" parent="1" source="D1hfKeOPMcl4Jce2dl7W-45" target="D1hfKeOPMcl4Jce2dl7W-61">
          <mxGeometry relative="1" as="geometry">
            <mxPoint x="-296" y="547" as="sourcePoint" />
            <mxPoint x="-136" y="547" as="targetPoint" />
          </mxGeometry>
        </mxCell>
        <mxCell id="D1hfKeOPMcl4Jce2dl7W-71" value="" style="endArrow=none;html=1;rounded=0;fontSize=12;startSize=8;endSize=8;curved=1;exitX=1;exitY=0.5;exitDx=0;exitDy=0;entryX=0;entryY=0.5;entryDx=0;entryDy=0;" edge="1" parent="1" source="D1hfKeOPMcl4Jce2dl7W-68" target="D1hfKeOPMcl4Jce2dl7W-3">
          <mxGeometry relative="1" as="geometry">
            <mxPoint x="-701" y="208" as="sourcePoint" />
            <mxPoint x="-541" y="208" as="targetPoint" />
          </mxGeometry>
        </mxCell>
        <mxCell id="D1hfKeOPMcl4Jce2dl7W-73" value="N" style="resizable=0;html=1;whiteSpace=wrap;align=right;verticalAlign=bottom;fontSize=16;" connectable="0" vertex="1" parent="D1hfKeOPMcl4Jce2dl7W-71">
          <mxGeometry x="1" relative="1" as="geometry">
            <mxPoint x="-8" as="offset" />
          </mxGeometry>
        </mxCell>
        <mxCell id="D1hfKeOPMcl4Jce2dl7W-74" value="" style="endArrow=none;html=1;rounded=0;fontSize=12;startSize=8;endSize=8;curved=1;exitX=1;exitY=0.5;exitDx=0;exitDy=0;entryX=0;entryY=0.5;entryDx=0;entryDy=0;" edge="1" parent="1" source="D1hfKeOPMcl4Jce2dl7W-1" target="D1hfKeOPMcl4Jce2dl7W-68">
          <mxGeometry relative="1" as="geometry">
            <mxPoint x="-655" y="2" as="sourcePoint" />
            <mxPoint x="-339" y="3" as="targetPoint" />
          </mxGeometry>
        </mxCell>
        <mxCell id="D1hfKeOPMcl4Jce2dl7W-75" value="M" style="resizable=0;html=1;whiteSpace=wrap;align=left;verticalAlign=bottom;fontSize=16;" connectable="0" vertex="1" parent="D1hfKeOPMcl4Jce2dl7W-74">
          <mxGeometry x="-1" relative="1" as="geometry">
            <mxPoint x="4" as="offset" />
          </mxGeometry>
        </mxCell>
        <mxCell id="D1hfKeOPMcl4Jce2dl7W-68" value="주문" style="shape=rhombus;perimeter=rhombusPerimeter;whiteSpace=wrap;html=1;align=center;fontSize=16;" vertex="1" parent="1">
          <mxGeometry x="-557" y="-27" width="120" height="60" as="geometry" />
        </mxCell>
        <mxCell id="D1hfKeOPMcl4Jce2dl7W-77" value="공급" style="shape=rhombus;perimeter=rhombusPerimeter;whiteSpace=wrap;html=1;align=center;fontSize=16;" vertex="1" parent="1">
          <mxGeometry x="-358" y="128" width="120" height="60" as="geometry" />
        </mxCell>
        <mxCell id="D1hfKeOPMcl4Jce2dl7W-80" value="" style="endArrow=none;html=1;rounded=0;fontSize=12;startSize=8;endSize=8;curved=1;entryX=0.5;entryY=0;entryDx=0;entryDy=0;exitX=0.5;exitY=1;exitDx=0;exitDy=0;" edge="1" parent="1" source="D1hfKeOPMcl4Jce2dl7W-77" target="D1hfKeOPMcl4Jce2dl7W-45">
          <mxGeometry relative="1" as="geometry">
            <mxPoint x="-424" y="222" as="sourcePoint" />
            <mxPoint x="-264" y="222" as="targetPoint" />
          </mxGeometry>
        </mxCell>
        <mxCell id="D1hfKeOPMcl4Jce2dl7W-81" value="1" style="resizable=0;html=1;whiteSpace=wrap;align=right;verticalAlign=bottom;fontSize=16;" connectable="0" vertex="1" parent="D1hfKeOPMcl4Jce2dl7W-80">
          <mxGeometry x="1" relative="1" as="geometry" />
        </mxCell>
        <mxCell id="D1hfKeOPMcl4Jce2dl7W-82" value="" style="endArrow=none;html=1;rounded=0;fontSize=12;startSize=8;endSize=8;curved=1;entryX=0.5;entryY=1;entryDx=0;entryDy=0;exitX=0.5;exitY=0;exitDx=0;exitDy=0;" edge="1" parent="1" source="D1hfKeOPMcl4Jce2dl7W-77" target="D1hfKeOPMcl4Jce2dl7W-3">
          <mxGeometry relative="1" as="geometry">
            <mxPoint x="-424" y="222" as="sourcePoint" />
            <mxPoint x="-264" y="222" as="targetPoint" />
          </mxGeometry>
        </mxCell>
        <mxCell id="D1hfKeOPMcl4Jce2dl7W-83" value="N" style="resizable=0;html=1;whiteSpace=wrap;align=right;verticalAlign=bottom;fontSize=16;" connectable="0" vertex="1" parent="D1hfKeOPMcl4Jce2dl7W-82">
          <mxGeometry x="1" relative="1" as="geometry">
            <mxPoint y="27" as="offset" />
          </mxGeometry>
        </mxCell>
        <mxCell id="D1hfKeOPMcl4Jce2dl7W-84" value="공급량" style="ellipse;whiteSpace=wrap;html=1;align=center;fontSize=16;" vertex="1" parent="1">
          <mxGeometry x="-175" y="101" width="100" height="40" as="geometry" />
        </mxCell>
        <mxCell id="D1hfKeOPMcl4Jce2dl7W-85" value="공급일자" style="ellipse;whiteSpace=wrap;html=1;align=center;fontSize=16;" vertex="1" parent="1">
          <mxGeometry x="-176" y="153" width="100" height="40" as="geometry" />
        </mxCell>
        <mxCell id="D1hfKeOPMcl4Jce2dl7W-86" value="" style="endArrow=none;html=1;rounded=0;fontSize=12;startSize=8;endSize=8;curved=1;entryX=0;entryY=0.5;entryDx=0;entryDy=0;exitX=0.867;exitY=0.4;exitDx=0;exitDy=0;exitPerimeter=0;" edge="1" parent="1" source="D1hfKeOPMcl4Jce2dl7W-77" target="D1hfKeOPMcl4Jce2dl7W-84">
          <mxGeometry relative="1" as="geometry">
            <mxPoint x="-424" y="222" as="sourcePoint" />
            <mxPoint x="-264" y="222" as="targetPoint" />
          </mxGeometry>
        </mxCell>
        <mxCell id="D1hfKeOPMcl4Jce2dl7W-87" value="" style="endArrow=none;html=1;rounded=0;fontSize=12;startSize=8;endSize=8;curved=1;entryX=0;entryY=0.5;entryDx=0;entryDy=0;exitX=0.892;exitY=0.6;exitDx=0;exitDy=0;exitPerimeter=0;" edge="1" parent="1" source="D1hfKeOPMcl4Jce2dl7W-77" target="D1hfKeOPMcl4Jce2dl7W-85">
          <mxGeometry relative="1" as="geometry">
            <mxPoint x="-414" y="232" as="sourcePoint" />
            <mxPoint x="-254" y="232" as="targetPoint" />
          </mxGeometry>
        </mxCell>
        <mxCell id="D1hfKeOPMcl4Jce2dl7W-88" value="주민번호" style="ellipse;whiteSpace=wrap;html=1;align=center;fontSize=16;" vertex="1" parent="1">
          <mxGeometry x="-645" y="-88" width="100" height="40" as="geometry" />
        </mxCell>
        <mxCell id="D1hfKeOPMcl4Jce2dl7W-89" value="배송지" style="ellipse;whiteSpace=wrap;html=1;align=center;fontSize=16;" vertex="1" parent="1">
          <mxGeometry x="-592" y="-141" width="100" height="40" as="geometry" />
        </mxCell>
        <mxCell id="D1hfKeOPMcl4Jce2dl7W-90" value="주문일자" style="ellipse;whiteSpace=wrap;html=1;align=center;fontSize=16;" vertex="1" parent="1">
          <mxGeometry x="-489" y="-141" width="100" height="40" as="geometry" />
        </mxCell>
        <mxCell id="D1hfKeOPMcl4Jce2dl7W-91" value="주문수량" style="ellipse;whiteSpace=wrap;html=1;align=center;fontSize=16;" vertex="1" parent="1">
          <mxGeometry x="-434" y="-91" width="100" height="40" as="geometry" />
        </mxCell>
        <mxCell id="D1hfKeOPMcl4Jce2dl7W-93" value="" style="endArrow=none;html=1;rounded=0;fontSize=12;startSize=8;endSize=8;curved=1;exitX=1;exitY=1;exitDx=0;exitDy=0;entryX=0;entryY=0;entryDx=0;entryDy=0;" edge="1" parent="1" source="D1hfKeOPMcl4Jce2dl7W-88" target="D1hfKeOPMcl4Jce2dl7W-68">
          <mxGeometry relative="1" as="geometry">
            <mxPoint x="-584" y="141" as="sourcePoint" />
            <mxPoint x="-424" y="141" as="targetPoint" />
          </mxGeometry>
        </mxCell>
        <mxCell id="D1hfKeOPMcl4Jce2dl7W-94" value="" style="endArrow=none;html=1;rounded=0;fontSize=12;startSize=8;endSize=8;curved=1;exitX=0.5;exitY=1;exitDx=0;exitDy=0;entryX=0.425;entryY=0.117;entryDx=0;entryDy=0;entryPerimeter=0;" edge="1" parent="1" source="D1hfKeOPMcl4Jce2dl7W-89" target="D1hfKeOPMcl4Jce2dl7W-68">
          <mxGeometry relative="1" as="geometry">
            <mxPoint x="-574" y="151" as="sourcePoint" />
            <mxPoint x="-414" y="151" as="targetPoint" />
          </mxGeometry>
        </mxCell>
        <mxCell id="D1hfKeOPMcl4Jce2dl7W-95" value="" style="endArrow=none;html=1;rounded=0;fontSize=12;startSize=8;endSize=8;curved=1;exitX=0;exitY=1;exitDx=0;exitDy=0;" edge="1" parent="1" source="D1hfKeOPMcl4Jce2dl7W-90" target="D1hfKeOPMcl4Jce2dl7W-68">
          <mxGeometry relative="1" as="geometry">
            <mxPoint x="-564" y="161" as="sourcePoint" />
            <mxPoint x="-404" y="161" as="targetPoint" />
          </mxGeometry>
        </mxCell>
        <mxCell id="D1hfKeOPMcl4Jce2dl7W-96" value="" style="endArrow=none;html=1;rounded=0;fontSize=12;startSize=8;endSize=8;curved=1;exitX=0.883;exitY=0.35;exitDx=0;exitDy=0;exitPerimeter=0;entryX=0;entryY=1;entryDx=0;entryDy=0;" edge="1" parent="1" source="D1hfKeOPMcl4Jce2dl7W-68" target="D1hfKeOPMcl4Jce2dl7W-91">
          <mxGeometry relative="1" as="geometry">
            <mxPoint x="-554" y="171" as="sourcePoint" />
            <mxPoint x="-394" y="171" as="targetPoint" />
          </mxGeometry>
        </mxCell>
        <mxCell id="D1hfKeOPMcl4Jce2dl7W-97" style="edgeStyle=none;curved=1;rounded=0;orthogonalLoop=1;jettySize=auto;html=1;exitX=1;exitY=1;exitDx=0;exitDy=0;fontSize=12;startSize=8;endSize=8;" edge="1" parent="1" source="D1hfKeOPMcl4Jce2dl7W-89" target="D1hfKeOPMcl4Jce2dl7W-89">
          <mxGeometry relative="1" as="geometry" />
        </mxCell>
        <mxCell id="D1hfKeOPMcl4Jce2dl7W-98" value="작성" style="shape=rhombus;perimeter=rhombusPerimeter;whiteSpace=wrap;html=1;align=center;fontSize=16;" vertex="1" parent="1">
          <mxGeometry x="-765" y="133" width="120" height="60" as="geometry" />
        </mxCell>
        <mxCell id="D1hfKeOPMcl4Jce2dl7W-99" value="" style="endArrow=none;html=1;rounded=0;fontSize=12;startSize=8;endSize=8;curved=1;entryX=0.5;entryY=1;entryDx=0;entryDy=0;exitX=0.5;exitY=0;exitDx=0;exitDy=0;" edge="1" parent="1" source="D1hfKeOPMcl4Jce2dl7W-98" target="D1hfKeOPMcl4Jce2dl7W-1">
          <mxGeometry relative="1" as="geometry">
            <mxPoint x="-599" y="257" as="sourcePoint" />
            <mxPoint x="-439" y="257" as="targetPoint" />
          </mxGeometry>
        </mxCell>
        <mxCell id="D1hfKeOPMcl4Jce2dl7W-100" value="1" style="resizable=0;html=1;whiteSpace=wrap;align=right;verticalAlign=bottom;fontSize=16;" connectable="0" vertex="1" parent="D1hfKeOPMcl4Jce2dl7W-99">
          <mxGeometry x="1" relative="1" as="geometry">
            <mxPoint y="27" as="offset" />
          </mxGeometry>
        </mxCell>
        <mxCell id="D1hfKeOPMcl4Jce2dl7W-101" value="" style="endArrow=none;html=1;rounded=0;fontSize=12;startSize=8;endSize=8;curved=1;exitX=0.5;exitY=1;exitDx=0;exitDy=0;entryX=0.5;entryY=0;entryDx=0;entryDy=0;" edge="1" parent="1" source="D1hfKeOPMcl4Jce2dl7W-98" target="D1hfKeOPMcl4Jce2dl7W-44">
          <mxGeometry relative="1" as="geometry">
            <mxPoint x="-424" y="352" as="sourcePoint" />
            <mxPoint x="-264" y="352" as="targetPoint" />
          </mxGeometry>
        </mxCell>
        <mxCell id="D1hfKeOPMcl4Jce2dl7W-102" value="N" style="resizable=0;html=1;whiteSpace=wrap;align=right;verticalAlign=bottom;fontSize=16;" connectable="0" vertex="1" parent="D1hfKeOPMcl4Jce2dl7W-101">
          <mxGeometry x="1" relative="1" as="geometry" />
        </mxCell>
      </root>
    </mxGraphModel>
  </diagram>
</mxfile>
